#!OML:ASF F:\VICON\USERDATA\INSTALL\rory3\rory3.ASF
:FULLY-SPECIFIED
:DEGREES
29
root -1.0244602766548372 18.01371693603965 -13.8113816453297 5.477241721480996 0.7437960332075536 -1.566445333509284
lfemur -39.14863841155969 0.39944340844318527 -17.81018835675252
ltibia 37.38231709606962
lfoot 3.6699632473810353 -14.493755362839082
ltoes -14.384637291699864
rfemur 13.737222166024184 8.857952849982622 34.0209531108652
rtibia 35.49375760466677
rfoot 25.879225105463206 -6.684814521221906
rtoes 11.296591486092371
lowerback 1.0 1.8559850366029422 4.965678578168212
upperback -1.485774171859588 3.3931074437986144 0.74306843259122
thorax -8.817783514818073 1.2953819941700542 -1.6813100201478346
lowerneck -19.73602344910924 -6.463323769925492 -1.8695944761723184
upperneck 17.341880033655038 -8.159228934726494 2.90930562129115
head 8.751905463373898 -3.693855812418578 0.402889112981081
lclavicle -2.4466540012985727e-14 -1.4449073441235622e-14
lhumerus -72.84353443550019 -0.16155533286350465 90.77136016835401
lradius 103.27768660881348
lwrist 34.00133819597218
lhand -25.567240809439443 -3.1985352156567712
lfingers nan
lthumb 0.9618333019484275 26.817085545875265
rclavicle -2.3157217489746574e-14 -1.3802679122824441e-14
rhumerus -30.326889506119905 15.774163862371893 -91.34883057295025
rradius 121.09263857937523
rwrist -21.62572532980271
rhand -18.917208676792203 1.0
rfingers nan
rthumb 7.36365807047657 14.267034718219952
30
root -1.0133494195668145 18.00825155899379 -13.038391629919158 5.4432920133602 0.5595244031352197 -1.6917631980668093
lfemur -37.94177634390002 0.6708115787190183 -17.97496331928797
ltibia 34.799078096167314
lfoot 3.7468891824402837 -13.787364005048174
ltoes -15.684146530710345
rfemur 12.944286212078945 8.937647975463344 34.416353853167905
rtibia 39.120431472575916
rfoot 23.945254414527923 -7.1514763072807455
rtoes 7.106197205383919
lowerback 1.0 1.8415275724197557 4.928245598811871
upperback -1.4111585319774949 3.3990998820443425 0.8101748531948282
thorax -8.809939582173511 1.3356084402204549 -1.6760480172455114
lowerneck -19.92933231369542 -6.397847930415533 -1.8288407424330977
upperneck 16.660964402273926 -8.00797006793027 2.882985592190111
head 8.545760611964928 -3.6004582181827915 0.41881699278159934
lclavicle 4.299938264461083e-14 2.5788002813421076e-14
lhumerus -72.31378861788562 0.06102727745804337 90.67190632748478
lradius 104.27617786905176
lwrist 33.479597530493294
lhand -25.1994855828735 -3.6039396882140142
lfingers nan
lthumb 1.3241524376787361 26.452782451481763
rclavicle 4.4189190570315366e-14 2.6451235411972228e-14
rhumerus -31.18985938674575 15.915609453349479 -91.58810343904504
rradius 120.00279284695648
rwrist -20.444482299158427
rhand -19.2371385991741 1.0
rfingers nan
rthumb 7.065427400250412 14.08140862284295
31
root -1.0121563274300596 17.976644840106836 -12.712030531047478 5.25406094287446 0.4091794499930018 -1.696739728292463
lfemur -36.50900967291806 1.049055401462663 -18.549863344073575
ltibia 33.069052521887414
lfoot 2.5941761766065627 -13.373233402832545
ltoes -19.321985576974374
rfemur 12.286622212473246 8.807190563812066 34.43667728688848
rtibia 43.045550174502964
rfoot 24.264100549522645 -7.614096509651525
rtoes 4.66461205366004
lowerback 1.0 1.8665740484988658 4.643705693578706
upperback -1.200251694584449 3.4268905641868415 0.7541922306243456
thorax -8.657586729088852 1.3791301833425877 -1.6270852297514367
lowerneck -19.698541166148612 -6.44106987731963 -1.7721205027195983
upperneck 15.92678651917823 -7.989365257609154 2.8977579579271158
head 8.279740750189866 -3.5730467273044586 0.4429479892800806
lclavicle -1.531429250057464e-14 -3.32539908754658e-14
lhumerus -71.63636218834074 -0.08233597779725699 90.6898255967659
lradius 105.12130031501813
lwrist 33.15410777073996
lhand -24.891784445050288 -3.8782402429055036
lfingers nan
lthumb 1.622828170124964 26.20853614338315
rclavicle -1.3778809839416827e-14 -3.246507972448008e-14
rhumerus -32.05308282240341 15.841686655717485 -91.7460588020509
rradius 118.79039411452852
rwrist -20.00445855122422
rhand -19.043467446811544 1.0
rfingers nan
rthumb 7.258140113213715 16.580778188561805
32
root -1.0035962196128787 17.949590885370956 -12.206962132157443 5.127265033898338 0.27491535703046877 -1.6376111018173996
lfemur -35.469314856233204 1.6691000768353383 -19.283380312736377
ltibia 31.88552583357725
lfoot 2.2795011907719616 -13.307383102264225
ltoes -20.07657597311831
rfemur 11.539391462446718 8.555385121623331 34.341510200061194
rtibia 47.28917894393314
rfoot 23.772806735473406 -8.523954090063972
rtoes 8.705190576435609
lowerback 1.0 1.8951388834362983 4.481426226299102
upperback -0.9261511418086769 3.4324669571386117 0.63734260397458
thorax -8.29222686011178 1.391134489861419 -1.6589097754685058
lowerneck -19.617953143601795 -6.429350195430821 -1.6701781048595477
upperneck 15.15187022549614 -8.025026131019816 2.8995075799072128
head 8.018770020309434 -3.5584546809069497 0.45722329468261547
lclavicle -2.9620286112740836e-14 -1.0233121415856894e-14
lhumerus -70.76873633898983 -0.3141443991369295 90.77811477559945
lradius 105.86578639585302
lwrist 32.95844193350319
lhand -25.41865324819747 -3.7155480750644445
lfingers nan
lthumb 1.1115617256349215 26.358804193107133
rclavicle -2.814745986115397e-14 -9.481881707682595e-15
rhumerus -32.9628118162355 15.199467766952484 -91.760925962808
rradius 117.11187577115139
rwrist -18.723644962901677
rhand -18.848384816643822 1.0
rfingers nan
rthumb 7.452535653549249 19.30964591298028
